<svg id="Groupe_3686" data-name="Groupe 3686" xmlns="http://www.w3.org/2000/svg" width="180.449" height="58.555" viewBox="0 0 180.449 58.555">
  <g id="Groupe_1367" data-name="Groupe 1367" transform="translate(0 0)">
    <path id="Tracé_3870" data-name="Tracé 3870" d="M164.867,48.356a2.306,2.306,0,0,0-2.3,2.3V72.706a2.3,2.3,0,0,0,4.6,0V50.658A2.3,2.3,0,0,0,164.867,48.356Z" transform="translate(-139.596 -38.139)" fill="#3c455b"/>
    <path id="Tracé_3871" data-name="Tracé 3871" d="M164.867,47.5a2.306,2.306,0,0,0-2.3,2.3V71.852a2.3,2.3,0,0,0,4.6,0V49.8A2.306,2.306,0,0,0,164.867,47.5Z" transform="translate(-139.596 -37.939)" fill="#262b48"/>
    <path id="Tracé_3872" data-name="Tracé 3872" d="M173.844,47.5a2.305,2.305,0,0,0-2.3,2.3V71.852a2.3,2.3,0,1,0,4.6,0V49.8A2.306,2.306,0,0,0,173.844,47.5Z" transform="translate(-141.706 -37.939)" fill="#3c455b"/>
    <path id="Tracé_3873" data-name="Tracé 3873" d="M173.844,41.477a2.306,2.306,0,0,0-2.3,2.3V65.827a2.3,2.3,0,1,0,4.6,0V43.779A2.306,2.306,0,0,0,173.844,41.477Z" transform="translate(-141.706 -36.522)" fill="#3c455b"/>
    <path id="Tracé_3874" data-name="Tracé 3874" d="M274.513,48.452a2.306,2.306,0,0,0-2.3,2.3v7.34a8.922,8.922,0,0,0-4.521-1.229,9.125,9.125,0,0,0-1.99,18.03,9.47,9.47,0,0,0,1.98.21,9.132,9.132,0,0,0,9.129-9.12V50.754A2.3,2.3,0,0,0,274.513,48.452Zm-3.76,20.887a4.542,4.542,0,0,1-6.418-6.418,4.565,4.565,0,0,1,3.365-1.453,5.015,5.015,0,0,1,.887.083,4.522,4.522,0,0,1,3.536,3.531A4.6,4.6,0,0,1,270.753,69.339Z" transform="translate(-162.163 -38.162)" fill="#3c455b"/>
    <path id="Tracé_3875" data-name="Tracé 3875" d="M286.393,51.174a2.282,2.282,0,1,0,0,4.564h.039a2.282,2.282,0,1,0-.039-4.564Z" transform="translate(-168.166 -38.802)" fill="#262b48"/>
    <path id="Tracé_3876" data-name="Tracé 3876" d="M286.412,59.449a2.306,2.306,0,0,0-2.3,2.3V75.387a2.3,2.3,0,0,0,4.6,0V61.751A2.3,2.3,0,0,0,286.412,59.449Z" transform="translate(-168.166 -40.747)" fill="#3c455b"/>
    <path id="Tracé_3877" data-name="Tracé 3877" d="M333.869,67.3" transform="translate(-179.862 -42.592)" fill="#192039"/>
    <path id="Tracé_3878" data-name="Tracé 3878" d="M251.083,68.515a9.561,9.561,0,0,0-3.365-6.993c-.136-.112-.273-.215-.415-.317-.185-.136-.376-.268-.571-.39a9.576,9.576,0,0,0-1.053-.571l-.058-.029a8.713,8.713,0,0,0-1.341-.464c-.034-.009-.063-.019-.1-.029a9.371,9.371,0,0,0-1.326-.22c-.244-.024-.493-.044-.737-.048-.029,0-.064-.005-.093-.005-.088,0-.175.01-.263.015a8.749,8.749,0,0,0-.956.069c-.078.009-.156.029-.234.039a9.319,9.319,0,0,0-3.35,1.243.033.033,0,0,1-.01-.019,9.177,9.177,0,0,0-1.834,1.468,9.056,9.056,0,0,0-2.5,6.349,9.558,9.558,0,0,0,3.365,6.993c.137.112.273.215.415.317.185.136.376.269.571.39a9.581,9.581,0,0,0,1.053.571l.059.029a8.654,8.654,0,0,0,1.341.464l.1.029a9.4,9.4,0,0,0,1.326.22c.244.024.493.044.737.049.029,0,.064,0,.093,0,.088,0,.176-.01.263-.015a8.94,8.94,0,0,0,.956-.068c.078-.01.156-.03.234-.039a9.343,9.343,0,0,0,3.35-1.244.037.037,0,0,1,.009.019,9.182,9.182,0,0,0,1.834-1.468A9.018,9.018,0,0,0,251.083,68.515Zm-4.189,4.472-1.429-1.449s-1.014.888-1.166.976c-.078.048-.171.063-.253.107a3.7,3.7,0,0,1-1.429.463,3.191,3.191,0,0,1-.386.024c-.073.005-.151.015-.224.015h-.02c-.025,0-.044,0-.068,0a4.848,4.848,0,0,1-.707-.068c-.073-.015-.147-.024-.215-.044a4.106,4.106,0,0,1-.737-.224.179.179,0,0,1-.044-.024,4.436,4.436,0,0,1-.659-.351c-.058-.039-.117-.073-.171-.112a4.424,4.424,0,0,1-.624-.512h0a4.465,4.465,0,0,1-.4-.458,4.549,4.549,0,0,1-.9-3.311c0-.029,0-.054,0-.083.02-.142.054-.283.083-.425.014-.063.019-.122.039-.185h0v-.01a4.17,4.17,0,0,1,.346-.815c.039-.078.059-.171.1-.249a5.07,5.07,0,0,1,.542-.7c.058-.068.1-.151.166-.214a4.192,4.192,0,0,1,.5-.39,5.191,5.191,0,0,1,.415-.322c.078-.049.171-.063.254-.107a4.519,4.519,0,0,1,.809-.342,4.661,4.661,0,0,1,.62-.122,3.519,3.519,0,0,1,.385-.024c.073,0,.151-.015.225-.015h.019c.024,0,.044,0,.068,0a4.957,4.957,0,0,1,.708.069c.073.015.146.024.214.044a4.167,4.167,0,0,1,.737.224.208.208,0,0,1,.044.024,4.582,4.582,0,0,1,.659.351c.058.039.117.073.171.112a4.369,4.369,0,0,1,.624.512h0a4.465,4.465,0,0,1,.4.459,4.547,4.547,0,0,1,.9,3.311C246.5,69.149,246.894,72.987,246.894,72.987Z" transform="translate(-156.123 -40.747)" fill="#192039"/>
    <path id="Tracé_3879" data-name="Tracé 3879" d="M217.269,68.515a9.564,9.564,0,0,0-3.365-6.993c-.137-.112-.273-.215-.415-.317-.185-.136-.376-.268-.571-.39a9.577,9.577,0,0,0-1.053-.571l-.059-.029a8.685,8.685,0,0,0-1.341-.464c-.034-.009-.063-.019-.1-.029a9.407,9.407,0,0,0-1.326-.22c-.244-.024-.493-.044-.737-.048-.029,0-.063-.005-.093-.005-.088,0-.176.01-.264.015a8.747,8.747,0,0,0-.955.069c-.078.009-.156.029-.234.039a9.323,9.323,0,0,0-3.35,1.243.038.038,0,0,1-.01-.019,9.2,9.2,0,0,0-1.834,1.468,9.056,9.056,0,0,0-2.5,6.349,9.559,9.559,0,0,0,3.365,6.993c.136.112.273.215.415.317.185.136.375.269.57.39a9.586,9.586,0,0,0,1.054.571l.058.029a8.682,8.682,0,0,0,1.341.464c.034.009.063.019.1.029a9.367,9.367,0,0,0,1.326.22c.244.024.493.044.736.049.03,0,.064,0,.093,0,.087,0,.175-.01.263-.015a8.926,8.926,0,0,0,.955-.068c.078-.01.156-.03.234-.039a9.333,9.333,0,0,0,3.35-1.244.033.033,0,0,1,.01.019,9.2,9.2,0,0,0,1.834-1.468A9.04,9.04,0,0,0,217.269,68.515Zm-4.194,4.472-1.429-1.449s-1.014.888-1.166.976c-.078.048-.171.063-.253.107a3.7,3.7,0,0,1-1.429.463,3.19,3.19,0,0,1-.385.024c-.073.005-.151.015-.224.015h-.02c-.024,0-.044,0-.068,0a4.848,4.848,0,0,1-.707-.068c-.073-.015-.147-.024-.215-.044a4.115,4.115,0,0,1-.736-.224.169.169,0,0,1-.044-.024,4.479,4.479,0,0,1-.659-.351c-.058-.039-.117-.073-.171-.112a4.426,4.426,0,0,1-.624-.512h0a4.5,4.5,0,0,1-1.3-3.77c0-.029,0-.054,0-.083.02-.142.054-.283.083-.425.015-.063.019-.122.039-.185h0v-.01a4.125,4.125,0,0,1,.347-.815c.039-.078.058-.171.1-.249a5.069,5.069,0,0,1,.542-.7c.059-.068.1-.151.166-.214a4.2,4.2,0,0,1,.5-.39,5.189,5.189,0,0,1,.415-.322c.078-.049.171-.063.254-.107a4.519,4.519,0,0,1,.809-.342,4.661,4.661,0,0,1,.62-.122,3.531,3.531,0,0,1,.385-.024c.073,0,.151-.015.225-.015h.019c.024,0,.044,0,.068,0a4.957,4.957,0,0,1,.708.069c.073.015.146.024.214.044a4.168,4.168,0,0,1,.737.224.208.208,0,0,1,.044.024,4.542,4.542,0,0,1,.659.351c.059.039.117.073.171.112a4.368,4.368,0,0,1,.624.512h0a4.371,4.371,0,0,1,.4.459,4.551,4.551,0,0,1,.9,3.311C212.679,69.149,213.075,72.987,213.075,72.987Z" transform="translate(-148.175 -40.747)" fill="#192039"/>
    <path id="Tracé_3880" data-name="Tracé 3880" d="M252.954,68.081a2.307,2.307,0,0,0-2.3,2.3v7.033a2.3,2.3,0,0,0,4.6,0V70.383A2.306,2.306,0,0,0,252.954,68.081Z" transform="translate(-160.301 -42.776)" fill="#262b48"/>
    <path id="Tracé_3881" data-name="Tracé 3881" d="M219.21,68.081a2.306,2.306,0,0,0-2.3,2.3v7.033a2.3,2.3,0,1,0,4.6,0V70.383A2.3,2.3,0,0,0,219.21,68.081Z" transform="translate(-152.37 -42.776)" fill="#262b48"/>
    <path id="Tracé_3882" data-name="Tracé 3882" d="M255.256,70.383a2.3,2.3,0,0,0-4.6,0v7.033a2.307,2.307,0,0,0,2.3,2.3" transform="translate(-160.301 -42.776)" fill="#262b48"/>
    <path id="Tracé_3883" data-name="Tracé 3883" d="M278.7,48.452a2.305,2.305,0,0,0-2.3,2.3V72.8a2.3,2.3,0,0,0,4.6,0V50.754A2.3,2.3,0,0,0,278.7,48.452Z" transform="translate(-166.353 -38.162)" fill="#262b48"/>
    <path id="Tracé_3884" data-name="Tracé 3884" d="M227.268,48.452a2.306,2.306,0,0,0-2.3,2.3V72.8a2.3,2.3,0,0,0,4.6,0V50.754A2.306,2.306,0,0,0,227.268,48.452Z" transform="translate(-154.264 -38.162)" fill="#262b48"/>
    <path id="Tracé_3885" data-name="Tracé 3885" d="M217.269,68.515a9.564,9.564,0,0,0-3.365-6.993c-.137-.112-.273-.215-.415-.317-.185-.136-.376-.268-.571-.39a9.577,9.577,0,0,0-1.053-.571l-.059-.029a8.685,8.685,0,0,0-1.341-.464c-.034-.009-.063-.019-.1-.029a9.407,9.407,0,0,0-1.326-.22c-.244-.024-.493-.044-.737-.048-.029,0-.063-.005-.093-.005-.088,0-.176.01-.264.015a8.747,8.747,0,0,0-.955.069c-.078.009-.156.029-.234.039a9.323,9.323,0,0,0-3.35,1.243.038.038,0,0,1-.01-.019,9.2,9.2,0,0,0-1.834,1.468,9.056,9.056,0,0,0-2.5,6.349,9.559,9.559,0,0,0,3.365,6.993c.136.112.273.215.415.317.185.136.375.269.57.39a9.586,9.586,0,0,0,1.054.571l.058.029a8.682,8.682,0,0,0,1.341.464c.034.009.063.019.1.029a9.367,9.367,0,0,0,1.326.22c.244.024.493.044.736.049.03,0,.064,0,.093,0,.087,0,.175-.01.263-.015a8.926,8.926,0,0,0,.955-.068c.078-.01.156-.03.234-.039a9.333,9.333,0,0,0,3.35-1.244.033.033,0,0,1,.01.019,9.2,9.2,0,0,0,1.834-1.468A9.04,9.04,0,0,0,217.269,68.515Zm-4.711,1.3h0v.009a4.087,4.087,0,0,1-.347.815c-.039.078-.058.171-.1.249a4.98,4.98,0,0,1-.542.7c-.059.069-.1.151-.166.215a4.3,4.3,0,0,1-.5.39c-.141.107-.263.229-.414.322-.078.048-.171.063-.254.107a3.687,3.687,0,0,1-1.429.463,3.181,3.181,0,0,1-.386.024c-.073.005-.151.015-.224.015h-.019c-.024,0-.044,0-.069,0a4.85,4.85,0,0,1-.707-.068c-.073-.015-.146-.024-.214-.044a4.105,4.105,0,0,1-.737-.224.2.2,0,0,1-.044-.024,4.429,4.429,0,0,1-.658-.351c-.059-.039-.117-.073-.171-.112a4.427,4.427,0,0,1-.624-.512h0a4.376,4.376,0,0,1-.4-.458,4.553,4.553,0,0,1-.9-3.311c.005-.029,0-.054.005-.083.019-.142.054-.283.083-.425.015-.063.02-.122.039-.185h0v0a4.087,4.087,0,0,1,.347-.815c.039-.078.058-.171.1-.249a4.915,4.915,0,0,1,.541-.7c.059-.069.1-.151.166-.215a4.434,4.434,0,0,1,.5-.39,5.225,5.225,0,0,1,.415-.322c.078-.048.171-.063.253-.107a4.525,4.525,0,0,1,.81-.341,4.634,4.634,0,0,1,.619-.122,3.372,3.372,0,0,1,.386-.024c.073-.005.151-.015.224-.015h.02c.024,0,.044.005.068.005a4.849,4.849,0,0,1,.707.068c.073.015.147.024.215.044a4.182,4.182,0,0,1,.736.225.17.17,0,0,1,.044.024,4.432,4.432,0,0,1,.658.351c.059.039.117.073.171.112a4.429,4.429,0,0,1,.624.513h0a4.5,4.5,0,0,1,1.3,3.77c-.005.029,0,.054-.005.083-.019.142-.054.283-.083.425C212.582,69.69,212.572,69.749,212.558,69.812Z" transform="translate(-148.175 -40.747)" fill="#3c455b"/>
    <g id="Groupe_1366" data-name="Groupe 1366" transform="translate(29.836 4.955)">
      <path id="Tracé_3886" data-name="Tracé 3886" d="M187.918,43.545c-.142-.112-.283-.214-.425-.312-.185-.142-.37-.268-.565-.395a7.264,7.264,0,0,0-1.049-.566c-.029-.015-.044-.029-.059-.029a7.756,7.756,0,0,0-1.346-.468c-.029-.015-.073-.015-.1-.029a8.115,8.115,0,0,0-1.331-.224,3.118,3.118,0,0,1-.371-.03.375.375,0,0,0-.126-.015h-8.613a2.3,2.3,0,1,0,0,4.6h8.613a.207.207,0,0,0,.1-.015l.3.044.215.044a4.84,4.84,0,0,1,.736.224c.015,0,.029.015.044.015a6.231,6.231,0,0,1,.668.356c.059.044.112.073.171.112a6.756,6.756,0,0,1,.624.512,3.973,3.973,0,0,1,.4.468,4.581,4.581,0,0,1,.906,3.3.177.177,0,0,0-.015.083c-.015.142-.058.283-.083.425-.015.073-.015.127-.029.185v.015h-.015a3.816,3.816,0,0,1-.341.82c-.044.073-.058.171-.1.239a7.093,7.093,0,0,1-.537.707,1.268,1.268,0,0,0-.171.215c-.156.142-.341.253-.512.38a3.187,3.187,0,0,1-.41.327c-.083.044-.171.059-.253.1a4.175,4.175,0,0,1-.809.356c-.215.044-.41.083-.624.112a3.361,3.361,0,0,1-.381.029c-.073,0-.156.015-.224.015h-8.266a2.3,2.3,0,1,0,0,4.6h8.613a2.488,2.488,0,0,0,.721-.112.134.134,0,0,1,.073-.015c.083,0,.156-.03.239-.03a9.589,9.589,0,0,0,3.346-1.248c.015,0,.015,0,.015.015a8.683,8.683,0,0,0,1.829-1.473,9,9,0,0,0,2.506-6.344A9.574,9.574,0,0,0,187.918,43.545Z" transform="translate(-171.542 -41.477)" fill="#3c455b"/>
      <path id="Tracé_3887" data-name="Tracé 3887" d="M187.918,61.371c-.142-.112-.283-.215-.425-.312-.185-.142-.37-.268-.565-.4a7.334,7.334,0,0,0-1.049-.565c-.029-.015-.044-.03-.059-.03a7.756,7.756,0,0,0-1.346-.468c-.029-.015-.073-.015-.1-.029a8.2,8.2,0,0,0-1.331-.224,3.282,3.282,0,0,1-.371-.029.375.375,0,0,0-.126-.015h-8.613a2.3,2.3,0,1,0,0,4.6h8.613a.217.217,0,0,0,.1-.015l.3.044.215.044a4.759,4.759,0,0,1,.736.225c.015,0,.029.015.044.015a6.233,6.233,0,0,1,.668.356c.059.044.112.073.171.112a6.756,6.756,0,0,1,.624.512,3.972,3.972,0,0,1,.4.468,4.581,4.581,0,0,1,.906,3.3.18.18,0,0,0-.015.083c-.015.142-.058.283-.083.424-.015.073-.015.127-.029.186v.015h-.015a3.811,3.811,0,0,1-.341.819c-.044.073-.058.171-.1.239a7.1,7.1,0,0,1-.537.708,1.262,1.262,0,0,0-.171.214c-.156.142-.341.254-.512.38a3.259,3.259,0,0,1-.41.327c-.083.044-.171.058-.253.1a4.129,4.129,0,0,1-.809.356c-.215.044-.41.083-.624.112a3.36,3.36,0,0,1-.381.029c-.073,0-.156.015-.224.015h-8.266a2.306,2.306,0,1,0,0,4.609h8.613a2.463,2.463,0,0,0,.721-.112.134.134,0,0,1,.073-.015c.083,0,.156-.029.239-.029a9.589,9.589,0,0,0,3.346-1.248c.015,0,.015,0,.015.015a8.707,8.707,0,0,0,1.829-1.473,9,9,0,0,0,2.506-6.344A9.573,9.573,0,0,0,187.918,61.371Z" transform="translate(-171.542 -45.667)" fill="#262b48"/>
    </g>
    <path id="Tracé_3888" data-name="Tracé 3888" d="M251.083,68.515a9.561,9.561,0,0,0-3.365-6.993c-.136-.112-.273-.215-.415-.317-.185-.136-.376-.268-.571-.39a9.576,9.576,0,0,0-1.053-.571l-.058-.029a8.713,8.713,0,0,0-1.341-.464c-.034-.009-.063-.019-.1-.029a9.371,9.371,0,0,0-1.326-.22c-.244-.024-.493-.044-.737-.048-.029,0-.064-.005-.093-.005-.088,0-.175.01-.263.015a8.749,8.749,0,0,0-.956.069c-.078.009-.156.029-.234.039a9.319,9.319,0,0,0-3.35,1.243.033.033,0,0,1-.01-.019,9.177,9.177,0,0,0-1.834,1.468,9.056,9.056,0,0,0-2.5,6.349,9.558,9.558,0,0,0,3.365,6.993c.137.112.273.215.415.317.185.136.376.269.571.39a9.581,9.581,0,0,0,1.053.571l.059.029a8.654,8.654,0,0,0,1.341.464l.1.029a9.4,9.4,0,0,0,1.326.22c.244.024.493.044.737.049.029,0,.064,0,.093,0,.088,0,.176-.01.263-.015a8.94,8.94,0,0,0,.956-.068c.078-.01.156-.03.234-.039a9.343,9.343,0,0,0,3.35-1.244.037.037,0,0,1,.009.019,9.182,9.182,0,0,0,1.834-1.468A9.018,9.018,0,0,0,251.083,68.515Zm-4.71,1.3h0v.009a4.133,4.133,0,0,1-.347.815c-.039.078-.059.171-.1.249a4.985,4.985,0,0,1-.542.7c-.058.069-.1.151-.165.215a4.425,4.425,0,0,1-.5.39c-.141.107-.263.229-.415.322-.078.048-.171.063-.253.107a3.7,3.7,0,0,1-1.429.463,3.191,3.191,0,0,1-.386.024c-.073.005-.151.015-.224.015h-.02c-.025,0-.044,0-.068,0a4.848,4.848,0,0,1-.707-.068c-.073-.015-.147-.024-.215-.044a4.106,4.106,0,0,1-.737-.224.179.179,0,0,1-.044-.024,4.436,4.436,0,0,1-.659-.351c-.058-.039-.117-.073-.171-.112a4.424,4.424,0,0,1-.624-.512h0a4.465,4.465,0,0,1-.4-.458,4.549,4.549,0,0,1-.9-3.311c0-.029,0-.054,0-.083.02-.142.054-.283.083-.425.014-.063.019-.122.039-.185h0v0a4.131,4.131,0,0,1,.346-.815c.039-.078.059-.171.1-.249a4.98,4.98,0,0,1,.542-.7c.058-.069.1-.151.166-.215a4.355,4.355,0,0,1,.5-.39c.142-.107.264-.229.415-.322.078-.048.171-.063.254-.107a4.517,4.517,0,0,1,.809-.341,4.669,4.669,0,0,1,.62-.122,3.348,3.348,0,0,1,.385-.024c.073-.005.151-.015.225-.015h.019c.024,0,.044.005.068.005a4.849,4.849,0,0,1,.708.068c.073.015.146.024.214.044a4.169,4.169,0,0,1,.737.225.179.179,0,0,1,.044.024,4.438,4.438,0,0,1,.659.351c.058.039.117.073.171.112a4.427,4.427,0,0,1,.624.513h0a4.459,4.459,0,0,1,.4.458,4.549,4.549,0,0,1,.9,3.311c0,.029,0,.054,0,.083-.02.142-.053.283-.083.425C246.4,69.69,246.391,69.749,246.372,69.812Z" transform="translate(-156.123 -40.747)" fill="#3c455b"/>
    <path id="Tracé_3889" data-name="Tracé 3889" d="M337.85,68.234a2.254,2.254,0,0,0-2.253,2.254v6.886a2.253,2.253,0,1,0,4.505,0V70.488A2.257,2.257,0,0,0,337.85,68.234Z" transform="translate(-180.268 -42.812)" fill="#262b48"/>
    <path id="Tracé_3890" data-name="Tracé 3890" d="M335.932,68.515a9.564,9.564,0,0,0-3.365-6.993c-.137-.112-.273-.215-.415-.317-.185-.136-.376-.268-.571-.39a9.573,9.573,0,0,0-1.053-.571l-.059-.029a8.686,8.686,0,0,0-1.341-.464c-.034-.009-.063-.019-.1-.029a9.411,9.411,0,0,0-1.326-.22c-.244-.024-.493-.044-.737-.048-.029,0-.064-.005-.093-.005-.088,0-.176.01-.264.015a8.75,8.75,0,0,0-.955.069c-.078.009-.156.029-.234.039a9.323,9.323,0,0,0-3.35,1.243.039.039,0,0,1-.01-.019,9.2,9.2,0,0,0-1.834,1.468,9.056,9.056,0,0,0-2.5,6.349,9.558,9.558,0,0,0,3.365,6.993c.136.112.273.215.415.317.185.136.375.269.57.39a9.584,9.584,0,0,0,1.054.571l.058.029a8.681,8.681,0,0,0,1.341.464c.034.009.064.019.1.029a9.37,9.37,0,0,0,1.326.22c.244.024.493.044.736.049.03,0,.064,0,.093,0,.087,0,.175-.01.263-.015A8.925,8.925,0,0,0,328,77.6c.078-.01.156-.03.234-.039a9.333,9.333,0,0,0,3.35-1.244.033.033,0,0,1,.01.019,9.2,9.2,0,0,0,1.834-1.468A9.063,9.063,0,0,0,335.932,68.515Zm-4.711,1.3h0v.009a4.089,4.089,0,0,1-.346.815c-.039.078-.058.171-.1.249a4.982,4.982,0,0,1-.542.7c-.059.069-.1.151-.166.215a4.358,4.358,0,0,1-.5.39c-.142.107-.264.229-.415.322-.078.048-.171.063-.254.107a3.687,3.687,0,0,1-1.429.463,3.179,3.179,0,0,1-.385.024c-.073.005-.151.015-.225.015h-.019c-.024,0-.044,0-.068,0a4.85,4.85,0,0,1-.708-.068c-.073-.015-.146-.024-.214-.044a4.1,4.1,0,0,1-.737-.224.178.178,0,0,1-.044-.024,4.4,4.4,0,0,1-.659-.351c-.059-.039-.117-.073-.171-.112a4.425,4.425,0,0,1-.624-.512h0a4.384,4.384,0,0,1-.4-.458,4.549,4.549,0,0,1-.9-3.311c0-.029,0-.054,0-.083.019-.142.053-.283.083-.425.014-.063.02-.122.039-.185h0v0a4.091,4.091,0,0,1,.347-.815c.039-.078.058-.171.1-.249a4.92,4.92,0,0,1,.541-.7c.059-.069.1-.151.166-.215a4.439,4.439,0,0,1,.5-.39,5.236,5.236,0,0,1,.415-.322c.078-.048.171-.063.253-.107a4.548,4.548,0,0,1,.81-.341,4.635,4.635,0,0,1,.619-.122,3.373,3.373,0,0,1,.386-.024c.073-.005.151-.015.224-.015h.02c.024,0,.044.005.068.005a4.85,4.85,0,0,1,.707.068c.073.015.147.024.215.044a4.183,4.183,0,0,1,.736.225.169.169,0,0,1,.044.024,4.434,4.434,0,0,1,.659.351c.058.039.117.073.171.112a4.42,4.42,0,0,1,.624.513h0a4.5,4.5,0,0,1,1.3,3.77c0,.029,0,.054,0,.083-.02.142-.054.283-.083.425C331.24,69.69,331.235,69.749,331.221,69.812Z" transform="translate(-176.068 -40.747)" fill="#3c455b"/>
    <path id="Tracé_3891" data-name="Tracé 3891" d="M365.175,48.88a13.689,13.689,0,0,1-10.612,13.343,30.516,30.516,0,0,0,1.049-26.407A13.723,13.723,0,0,1,365.175,48.88Z" transform="translate(-184.726 -35.192)" fill="#7cc9e4"/>
    <path id="Tracé_3892" data-name="Tracé 3892" d="M346.321,55.921a29.163,29.163,0,0,1-.81,6.915h-.029l-2.819,4.833V62.382h-.029a11.46,11.46,0,0,0-2.8-7.252,10.7,10.7,0,0,0-6.715-3.57,1.653,1.653,0,0,0-.268-.015,12.882,12.882,0,0,1-.215-2.351,13.643,13.643,0,0,1,7.2-12.04A30.153,30.153,0,0,1,346.321,55.921Z" transform="translate(-179.571 -35.507)" fill="#3fbadb"/>
    <path id="Tracé_3893" data-name="Tracé 3893" d="M355.177,47.752a30.314,30.314,0,0,1-3.555,14.279,13.973,13.973,0,0,1-3.087.356c-.268,0-.537-.044-.81-.059a29.4,29.4,0,0,0,.81-6.915,30.191,30.191,0,0,0-6.487-18.771A13.533,13.533,0,0,1,348.535,35a14.066,14.066,0,0,1,4.135.624A30.421,30.421,0,0,1,355.177,47.752Z" transform="translate(-181.785 -35)" fill="#58c0e6"/>
    <path id="Tracé_3894" data-name="Tracé 3894" d="M357.28,47.806a.456.456,0,0,0-.283-.1l-.088.02c-.107.015-.166.122-.3.321-.5.985-1.912,3.736-2.512,4.755-.838,1.434-1.4,2.151-1.672,2.151h-.054c-.073-.039-.112-.142-.112-.312v-.044a20.317,20.317,0,0,1,1.014-4.047,7.377,7.377,0,0,0,.522-2.6v-.068a4.458,4.458,0,0,0-.1-.946c-.2-.766-.585-1.146-1.18-1.146a1.251,1.251,0,0,0-.913.468,17.469,17.469,0,0,0-2.555,4.706h-.025v-.024a19.054,19.054,0,0,0,.58-3.389v-.112c0-.054,0-.108-.009-.166q-.914-1.449-1.439-1.449-.271,0-.468.381c-.253,1.6-.473,2.989-.668,4.16-.044.234-.073.424-.108.619-1.36,1.7-2.316,2.56-2.858,2.56-.351,0-.526-.351-.526-1.048V52.38a48.9,48.9,0,0,1,1.717-8.973,11.179,11.179,0,0,0,1.326-.425,5.075,5.075,0,0,0,1.829-1.117.513.513,0,0,0,.039-.068c.029-.03.064-.044.093-.073a2.6,2.6,0,0,0,.629-1.341c-.029-.337-.259-.366-.341-.371a.693.693,0,0,0-.448.147l-.044.029-.019.049a2.267,2.267,0,0,1-.513.711,5.143,5.143,0,0,1-.912.654,8.287,8.287,0,0,1-1.39.532,5.347,5.347,0,0,0,.088-.708,1.321,1.321,0,0,0-.478-1.18,3.126,3.126,0,0,0-1.195-.415c-.21,0-.312.176-.312.527a16.5,16.5,0,0,1-.341,2.17h-.127a40.2,40.2,0,0,1-6.554-.717c-.927-.181-1.312-.283-1.536-.347a2.2,2.2,0,0,0-.532-.1H334.5c-.234,0-.337.3-.473.785-.025.093-.064.22-.073.244l-.029.044v.171l.107.215.044.054a.2.2,0,0,1,.044.024s-.01,0-.015.01v.078l-.015.273a20.571,20.571,0,0,0,5.642.614c1.834,0,2.838-.161,3.282-.176h.01q-.293,1.617-1.014,5.428a16.217,16.217,0,0,0-.536,3.321A4.505,4.505,0,0,0,341.6,53.6a1.564,1.564,0,0,0,1.551,1.292q1.3,0,2.868-1.775c.244-.3.458-.6.668-.9-.024.151-.044.263-.044.282a2.128,2.128,0,0,0,.278,1.039,2.235,2.235,0,0,0,1.17,1.014c.181,0,.327-.356.444-1.058a13.212,13.212,0,0,1,.58-1.429q1.9-4.323,2.185-4.359c.039.015.054.063.054.146V48c0,.166-.02.415-.054.756a56.013,56.013,0,0,0-.926,5.755v.244a2.653,2.653,0,0,0,.078.614c.21.639.575.961,1.1.961a2.66,2.66,0,0,0,1.5-.844,29.251,29.251,0,0,0,2.891-4.706C357.172,48.484,357.689,48.274,357.28,47.806Z" transform="translate(-179.874 -36.136)" fill="#fff"/>
    <circle id="Ellipse_131" data-name="Ellipse 131" cx="1.697" cy="1.697" r="1.697" transform="translate(161.327 33.323)" fill="#3fbadb"/>
    <path id="Tracé_3895" data-name="Tracé 3895" d="M148.031,68.746c-.078.2-.127.415-.224.605-.054.1-.137.181-.2.278a5.489,5.489,0,0,1-.63.893,5.738,5.738,0,0,1-.571.532,4.117,4.117,0,0,1-.385.278c-.078.054-.147.112-.225.161,0,0-.015.01-.019.015-.024.015-.049.024-.073.039a5.91,5.91,0,0,1-.789.39c-.083.034-.171.068-.254.1a5.61,5.61,0,0,1-.922.249.293.293,0,0,1-.063,0,5.731,5.731,0,0,1-.916.063c-.083,0-.171-.005-.254-.01a5.7,5.7,0,0,1-.99-.132h0a6,6,0,0,1-.727-.22,5.626,5.626,0,0,1-3.106-2.891c-.015-.03-.034-.059-.049-.093-.073-.161-.132-.331-.19-.5-.024-.073-.059-.142-.083-.22h0c0-.005,0-.005,0-.01a5.059,5.059,0,0,1-.171-1.082c-.01-.112-.049-.215-.054-.327a5.475,5.475,0,0,1,.112-1.092c.02-.112.01-.225.034-.337a5.829,5.829,0,0,1,.273-.741c.078-.2.127-.415.224-.605.054-.1.137-.181.2-.278a5.445,5.445,0,0,1,.63-.893,5.819,5.819,0,0,1,.57-.532,4.394,4.394,0,0,1,.386-.278c.078-.054.146-.112.224-.161.005,0,.015-.009.02-.015a.469.469,0,0,1,.073-.034,5.872,5.872,0,0,1,.79-.39c.083-.034.171-.069.254-.1a5.606,5.606,0,0,1,.922-.249.293.293,0,0,1,.064,0,5.731,5.731,0,0,1,.916-.063c.083,0,.171,0,.254.009a5.79,5.79,0,0,1,.99.132h0a6,6,0,0,1,.727.219,5.627,5.627,0,0,1,3.106,2.892c.015.029.034.059.049.093.073.161.132.332.19.5.024.073.059.142.083.22h0s0,0,0,.009a4.451,4.451,0,0,1,.151.874l1.721-1.073a1.422,1.422,0,0,1-.409-.6,1.4,1.4,0,0,1,.672-1.595c-.009-.122-.015-.327-.024-.376-.126-.63.527-.669,1.054-1a12.474,12.474,0,0,0-7.34-4.662c-.2-.024-.386-.044-.581-.059-.259-.019-.517-.034-.776-.034a10.11,10.11,0,0,0-1.336.078.4.4,0,0,1-.073,0,10.07,10.07,0,0,0-1.551.351c-.034.01-.073.02-.112.034a10.105,10.105,0,0,0-1.395.575c-.249.122-.493.249-.727.39-.03.02-.064.034-.093.054-.083.054-.161.117-.244.171a10.411,10.411,0,0,0-.868.63c-.068.058-.132.117-.2.175a10.488,10.488,0,0,0-2.449,3.165c0-.005-.015-.005-.024-.01a10.1,10.1,0,0,0,.5,10,10.691,10.691,0,0,0,7.34,4.662c.2.024.385.044.58.059.259.019.517.034.776.034a10.248,10.248,0,0,0,1.336-.078.339.339,0,0,1,.073-.005,9.982,9.982,0,0,0,1.55-.351c.034-.01.073-.019.112-.034a10.107,10.107,0,0,0,1.395-.576c.249-.122.493-.249.727-.39.029-.019.064-.034.093-.054.083-.054.161-.117.244-.171a10.4,10.4,0,0,0,.868-.629c.068-.059.132-.117.2-.176a10.483,10.483,0,0,0,2.448-3.165c.005,0,.014,0,.024.009a10.181,10.181,0,0,0,.873-2.482c.005-.009.005-.024.01-.034.478-1.839-2.979-3.677-4.462-.815C148.314,68.064,148.1,68.576,148.031,68.746Z" transform="translate(-132.538 -40.086)" fill="#58c0e6"/>
    <path id="Tracé_3896" data-name="Tracé 3896" d="M134.923,73.756a2.3,2.3,0,0,0,3.17.737l13.074-8.739a2.3,2.3,0,1,0-2.433-3.906L135.66,70.587A2.3,2.3,0,0,0,134.923,73.756Z" transform="translate(-133.017 -41.229)" fill="#58c0e6"/>
    <path id="Tracé_3897" data-name="Tracé 3897" d="M307.922,74.49c.107-.137.2-.269.3-.4.137-.176.259-.351.38-.542a7.342,7.342,0,0,0,.542-1c.015-.029.029-.039.029-.054a8.021,8.021,0,0,0,.449-1.283c.014-.029.014-.068.029-.093a7.99,7.99,0,0,0,.214-1.273,2.881,2.881,0,0,1,.03-.351.35.35,0,0,0,.014-.122V61.776a2.2,2.2,0,1,0-4.394,0v7.594a.2.2,0,0,0,.015.093c-.015.093-.029.19-.039.283-.014.068-.029.136-.039.2a4.229,4.229,0,0,1-.215.7c0,.015-.014.03-.014.039a5.13,5.13,0,0,1-.337.634c-.039.054-.068.107-.107.161a6.222,6.222,0,0,1-.487.594,4.077,4.077,0,0,1-.444.381,4.366,4.366,0,0,1-3.15.863.166.166,0,0,0-.083-.015,4.008,4.008,0,0,1-.405-.083c-.068-.015-.122-.015-.175-.03h-.015v-.015a3.591,3.591,0,0,1-.786-.327c-.068-.039-.161-.054-.229-.093a6.341,6.341,0,0,1-.678-.512,1.109,1.109,0,0,0-.2-.161,5.882,5.882,0,0,1-.366-.487,3.272,3.272,0,0,1-.312-.39c-.039-.083-.054-.161-.093-.244a3.72,3.72,0,0,1-.337-.77c-.039-.205-.083-.39-.108-.6a3.113,3.113,0,0,1-.029-.366c0-.069-.015-.147-.015-.215V61.776a2.2,2.2,0,1,0-4.394,0v7.594a2.264,2.264,0,0,0,.107.688.116.116,0,0,1,.015.068c0,.083.03.146.03.229a9.114,9.114,0,0,0,1.19,3.189c0,.015,0,.015-.015.015a8.447,8.447,0,0,0,1.4,1.746,8.625,8.625,0,0,0,6.057,2.4A9.154,9.154,0,0,0,307.922,74.49Z" transform="translate(-170.13 -40.757)" fill="#262b48"/>
    <path id="Tracé_3898" data-name="Tracé 3898" d="M303.147,77.689a2.306,2.306,0,0,0-2.3,2.3V86.4a2.3,2.3,0,0,0,4.6,0V79.991A2.305,2.305,0,0,0,303.147,77.689Z" transform="translate(-172.1 -45.034)" fill="#3c455b"/>
  </g>
  <g id="Groupe_1371" data-name="Groupe 1371" transform="translate(0.01 47.153)">
    <g id="Groupe_1368" data-name="Groupe 1368" transform="translate(31.879)">
      <path id="Tracé_3899" data-name="Tracé 3899" d="M180.824,105.45h-.468a2.462,2.462,0,0,1-2.165-.965,2.193,2.193,0,0,1-1.6.639,2.159,2.159,0,0,1-1.721-.795,2.89,2.89,0,0,1-.639-1.931,2.659,2.659,0,0,1,2.77-2.8h.731V99h1.385v3.38a1.8,1.8,0,0,0,.366,1.268,1.331,1.331,0,0,0,1,.351h.351v1.448Zm-4.267-8a.783.783,0,0,1-.249.581.816.816,0,0,1-.585.243.85.85,0,0,1-.834-.824.759.759,0,0,1,.249-.566.826.826,0,0,1,1.17,0A.779.779,0,0,1,176.557,97.452Zm1.16,3.433h-.692a1.273,1.273,0,0,0-1.068.444,1.553,1.553,0,0,0-.3.99,1.623,1.623,0,0,0,.327,1.083.969.969,0,0,0,.785.366,1.5,1.5,0,0,0,1-.429,3.52,3.52,0,0,1-.054-.639Zm.717-3.433a.831.831,0,0,1-1.419.581.8.8,0,0,1-.249-.581.762.762,0,0,1,.249-.566.849.849,0,0,1,1.18-.009A.774.774,0,0,1,178.434,97.452Z" transform="translate(-174.226 -96.643)" fill="#3c455b"/>
      <path id="Tracé_3900" data-name="Tracé 3900" d="M182.513,106.431v-1.448h.352a1.255,1.255,0,0,0,1.1-.458,2.051,2.051,0,0,0,.273-1.161v-2.546h1.5v2.546a1.8,1.8,0,0,0,.366,1.268,1.331,1.331,0,0,0,1,.351h.351v1.448H187a2.4,2.4,0,0,1-2.01-.824,2.435,2.435,0,0,1-2.009.824Zm1.21,2.595a.8.8,0,0,1-.585-.244.783.783,0,0,1,0-1.146.837.837,0,0,1,1.17,0,.8.8,0,0,1,.249.581.759.759,0,0,1-.249.565A.806.806,0,0,1,183.723,109.026Zm1.882,0a.806.806,0,0,1-.585-.244.784.784,0,0,1,0-1.146.849.849,0,0,1,1.18,0,.794.794,0,0,1,.244.581.776.776,0,0,1-.244.575A.824.824,0,0,1,185.6,109.026Z" transform="translate(-176.174 -97.624)" fill="#3c455b"/>
      <path id="Tracé_3901" data-name="Tracé 3901" d="M194.637,105.743a2.512,2.512,0,0,1-3.667,0,1.95,1.95,0,0,1-1.512.624h-.824v-1.448h.444a1.08,1.08,0,0,0,.883-.341,1.7,1.7,0,0,0,.283-1.083,3.612,3.612,0,0,1,.224-1.307,2.369,2.369,0,0,1,2.345-1.644,2.383,2.383,0,0,1,1.527.5,2.622,2.622,0,0,1,.809,1.108,3.9,3.9,0,0,1,.224,1.346c0,.946.386,1.424,1.161,1.424h.458v1.448h-.834A1.966,1.966,0,0,1,194.637,105.743Zm-2.95-2.3a1.971,1.971,0,0,0,.39,1.346.949.949,0,0,0,.731.327.933.933,0,0,0,.809-.429,2.115,2.115,0,0,0,.312-1.238,1.842,1.842,0,0,0-.351-1.215.942.942,0,0,0-.77-.351.931.931,0,0,0-.848.459A1.925,1.925,0,0,0,191.687,103.446Z" transform="translate(-177.613 -97.56)" fill="#3c455b"/>
      <path id="Tracé_3902" data-name="Tracé 3902" d="M203.1,105.6H199.21v-1.448h1.8a3,3,0,0,1-.4-1.58,2.91,2.91,0,0,1,.756-2.126,2.32,2.32,0,0,1,4.057,1.619V103.2a2.413,2.413,0,0,1-.663,1.775A2.279,2.279,0,0,1,203.1,105.6Zm-.1-7.5a.76.76,0,0,1-.249.566.828.828,0,0,1-.6.239.791.791,0,0,1-.58-.239.779.779,0,0,1-.244-.566.824.824,0,0,1,.824-.819.847.847,0,0,1,.6.239A.776.776,0,0,1,202.995,98.1Zm-1.005,4.5a1.773,1.773,0,0,0,.381,1.229.964.964,0,0,0,.746.327c.581,0,.873-.327.873-.98v-1.029c0-.7-.3-1.044-.9-1.044a.952.952,0,0,0-.81.39A1.852,1.852,0,0,0,201.99,102.6Zm2.868-4.5a.791.791,0,0,1-.239.575.826.826,0,0,1-.6.234.8.8,0,0,1-.585-.239.784.784,0,0,1,0-1.146.807.807,0,0,1,.585-.239.826.826,0,0,1,.6.234A.75.75,0,0,1,204.858,98.1Z" transform="translate(-180.099 -96.793)" fill="#3c455b"/>
      <path id="Tracé_3903" data-name="Tracé 3903" d="M211.836,100.825v5.427a2.691,2.691,0,0,1-.771,2.088,2.276,2.276,0,0,1-1.619.585,3.717,3.717,0,0,1-1.814-.483l.366-1.121a2.474,2.474,0,0,0,1.083.3,1.134,1.134,0,0,0,.965-.444,1.794,1.794,0,0,0,.3-1.107v-5.248Z" transform="translate(-182.078 -97.626)" fill="#3c455b"/>
      <path id="Tracé_3904" data-name="Tracé 3904" d="M226.458,105.943h-3.706a2.948,2.948,0,0,1-2.4-1,2.883,2.883,0,0,1-.639-1.877,2.761,2.761,0,0,1,.468-1.566,2.674,2.674,0,0,1,1.215-.98l.624.965a1.667,1.667,0,0,0-.693.614,1.568,1.568,0,0,0-.249.848,1.454,1.454,0,0,0,.483,1.122,1.7,1.7,0,0,0,1.2.429H226.2a1.436,1.436,0,0,0,1.214-.458,1.928,1.928,0,0,0,.288-1.161V100.33h1.5v2.858A2.429,2.429,0,0,1,226.458,105.943Zm-1.9-6.379a.758.758,0,0,1-.249.566.817.817,0,0,1-.585.244.807.807,0,0,1-.585-.244.765.765,0,0,1-.249-.566.78.78,0,0,1,.249-.58.812.812,0,0,1,.585-.244.8.8,0,0,1,.585.249A.787.787,0,0,1,224.556,99.564Zm1.877,0a.764.764,0,0,1-.249.576.844.844,0,0,1-.6.234.808.808,0,0,1-.585-.244.765.765,0,0,1-.249-.566.787.787,0,0,1,.249-.575.8.8,0,0,1,.585-.249.831.831,0,0,1,.6.244A.773.773,0,0,1,226.433,99.564Z" transform="translate(-184.918 -97.136)" fill="#3c455b"/>
      <path id="Tracé_3905" data-name="Tracé 3905" d="M238.359,105.486h-4.321v-1.448h1.907V98.649h1.5v5.389h.756a1.428,1.428,0,0,0,1.082-.332,1.825,1.825,0,0,0,.3-1.2V96.8h1.5V102.9C241.085,104.627,240.178,105.486,238.359,105.486Z" transform="translate(-188.285 -96.679)" fill="#3c455b"/>
      <path id="Tracé_3906" data-name="Tracé 3906" d="M249.021,106a1.809,1.809,0,0,1-.825.186,2.458,2.458,0,0,1-2.072-.874,2.974,2.974,0,0,1-.546-1.877,2.854,2.854,0,0,1,.77-2.1,2.358,2.358,0,0,1,1.775-.7,2.147,2.147,0,0,1,2.335,2.283v3.3a2.648,2.648,0,0,1-.834,2.111,2.574,2.574,0,0,1-1.721.585,3.893,3.893,0,0,1-1.907-.536l.38-1.136a2.707,2.707,0,0,0,1.254.351,1.311,1.311,0,0,0,1.019-.405,1.62,1.62,0,0,0,.366-1.029.33.33,0,0,1,.015-.078A.289.289,0,0,1,249.021,106Zm0-1.292v-1.775c0-.7-.312-1.043-.942-1.043a.991.991,0,0,0-.887.458,1.8,1.8,0,0,0-.249,1.005,1.678,1.678,0,0,0,.419,1.214,1.157,1.157,0,0,0,.873.351A1.653,1.653,0,0,0,249.021,104.7Z" transform="translate(-190.998 -97.579)" fill="#3c455b"/>
      <path id="Tracé_3907" data-name="Tracé 3907" d="M264.544,105.45h-.469a2.462,2.462,0,0,1-2.165-.965,2.193,2.193,0,0,1-1.6.639,2.158,2.158,0,0,1-1.721-.795,2.866,2.866,0,0,1-.639-1.931,2.659,2.659,0,0,1,2.77-2.8h.731V99h1.385v3.38a1.8,1.8,0,0,0,.366,1.268,1.331,1.331,0,0,0,1,.351h.351v1.448Zm-4.268-8a.783.783,0,0,1-.249.581.817.817,0,0,1-.585.243.792.792,0,0,1-.585-.249.807.807,0,0,1-.249-.575.759.759,0,0,1,.249-.566.816.816,0,0,1,.585-.243.807.807,0,0,1,.585.243A.779.779,0,0,1,260.277,97.452Zm1.16,3.433h-.692a1.273,1.273,0,0,0-1.068.444,1.558,1.558,0,0,0-.3.99,1.623,1.623,0,0,0,.327,1.083.97.97,0,0,0,.785.366,1.5,1.5,0,0,0,1.005-.429,3.451,3.451,0,0,1-.054-.639Zm.717-3.433a.8.8,0,0,1-.244.581.837.837,0,0,1-1.18,0,.8.8,0,0,1-.249-.581.759.759,0,0,1,.249-.566.816.816,0,0,1,.585-.243.825.825,0,0,1,.6.234A.778.778,0,0,1,262.155,97.452Z" transform="translate(-193.905 -96.643)" fill="#3c455b"/>
      <path id="Tracé_3908" data-name="Tracé 3908" d="M266.845,109.026a.8.8,0,0,1-.585-.244.766.766,0,0,1-.249-.565.781.781,0,0,1,.249-.581.837.837,0,0,1,1.17,0,.784.784,0,0,1,.249.581.759.759,0,0,1-.249.565A.789.789,0,0,1,266.845,109.026Zm-.663-2.595v-1.448h.351a1.255,1.255,0,0,0,1.1-.458,2.051,2.051,0,0,0,.273-1.161v-2.546h1.5v2.858a2.436,2.436,0,0,1-2.755,2.755Zm2.54,2.595a.806.806,0,0,1-.585-.244.785.785,0,0,1,0-1.146.849.849,0,0,1,1.18,0,.8.8,0,0,1,.244.581.779.779,0,0,1-.244.575A.816.816,0,0,1,268.722,109.026Z" transform="translate(-195.8 -97.624)" fill="#3c455b"/>
      <path id="Tracé_3909" data-name="Tracé 3909" d="M274.832,106.385h-2.663v-1.448h2.351c.712,0,1.068-.3,1.068-.9a2.1,2.1,0,0,0-.4-1.165,4.173,4.173,0,0,0-1.082-1.088l.863-1.16a5.356,5.356,0,0,1,1.551,1.58,3.437,3.437,0,0,1,.546,1.629,1.1,1.1,0,0,0,.371.824,1.46,1.46,0,0,0,.971.288h.351v1.449h-.468a2.526,2.526,0,0,1-1.775-.6A2.227,2.227,0,0,1,274.832,106.385Z" transform="translate(-197.248 -97.578)" fill="#3c455b"/>
      <path id="Tracé_3910" data-name="Tracé 3910" d="M280.843,105.486h-.4v-1.448h.288a1.255,1.255,0,0,0,1.1-.458,1.968,1.968,0,0,0,.288-1.161V96.8H283.6v5.622a1.755,1.755,0,0,0,.38,1.268,1.331,1.331,0,0,0,1,.351h.288v1.448h-.405a2.4,2.4,0,0,1-2.009-.824A2.414,2.414,0,0,1,280.843,105.486Z" transform="translate(-199.192 -96.679)" fill="#3c455b"/>
      <path id="Tracé_3911" data-name="Tracé 3911" d="M286.411,106.431v-1.448h.351a1.256,1.256,0,0,0,1.1-.458,2.051,2.051,0,0,0,.273-1.161v-2.546h1.5v2.546a1.8,1.8,0,0,0,.366,1.268,1.331,1.331,0,0,0,1,.351h.351v1.448H290.9a2.4,2.4,0,0,1-2.009-.824,2.437,2.437,0,0,1-2.01.824Zm2.453,2.595a.805.805,0,0,1-.585-.244.784.784,0,0,1,0-1.146.812.812,0,0,1,.585-.239.832.832,0,0,1,.834.819.756.756,0,0,1-.249.565A.814.814,0,0,1,288.864,109.026Z" transform="translate(-200.596 -97.624)" fill="#3c455b"/>
      <path id="Tracé_3912" data-name="Tracé 3912" d="M292.937,105.486h-.4v-1.448h.288a1.255,1.255,0,0,0,1.1-.458,1.968,1.968,0,0,0,.288-1.161V96.8h1.488v5.934A2.434,2.434,0,0,1,292.937,105.486Z" transform="translate(-202.035 -96.679)" fill="#3c455b"/>
      <path id="Tracé_3913" data-name="Tracé 3913" d="M300.925,105.486h-1.5V96.8h1.5Z" transform="translate(-203.654 -96.679)" fill="#3c455b"/>
    </g>
    <g id="Groupe_1369" data-name="Groupe 1369" transform="translate(0 6.632)">
      <path id="Tracé_3914" data-name="Tracé 3914" d="M157.909,106.288,132.55,105.8l25.359-.488Z" transform="translate(-132.55 -105.313)" fill="#58c0e6"/>
    </g>
    <g id="Groupe_1370" data-name="Groupe 1370" transform="translate(133.135 6.632)">
      <path id="Tracé_3915" data-name="Tracé 3915" d="M306.6,105.313l25.359.488-25.359.488Z" transform="translate(-306.596 -105.313)" fill="#58c0e6"/>
    </g>
  </g>
</svg>
